<?xml version="1.0" encoding="UTF-8"?>
<svg xmlns="http://www.w3.org/2000/svg" version="1.1" width="100" height="100" viewBox="0 0 100 100"><rect x="0" y="0" width="100" height="100" fill="#ffffff"/><g transform="scale(1.639)"><g transform="translate(0,0)"><path fill-rule="evenodd" d="M8 0L8 4L10 4L10 5L8 5L8 7L9 7L9 9L7 9L7 8L4 8L4 9L5 9L5 10L3 10L3 9L2 9L2 8L0 8L0 9L1 9L1 10L3 10L3 11L1 11L1 12L0 12L0 17L2 17L2 16L3 16L3 15L2 15L2 14L1 14L1 12L2 12L2 13L3 13L3 14L4 14L4 17L3 17L3 18L2 18L2 19L1 19L1 21L2 21L2 19L3 19L3 20L5 20L5 21L8 21L8 20L9 20L9 19L10 19L10 20L11 20L11 23L9 23L9 22L4 22L4 21L3 21L3 23L8 23L8 25L9 25L9 24L11 24L11 25L10 25L10 26L9 26L9 27L8 27L8 28L5 28L5 27L7 27L7 26L6 26L6 25L7 25L7 24L3 24L3 26L2 26L2 23L0 23L0 25L1 25L1 27L0 27L0 28L1 28L1 29L0 29L0 33L2 33L2 34L1 34L1 35L2 35L2 34L3 34L3 37L4 37L4 35L5 35L5 38L6 38L6 39L4 39L4 38L3 38L3 39L2 39L2 36L0 36L0 44L1 44L1 42L2 42L2 41L8 41L8 43L7 43L7 42L4 42L4 45L3 45L3 46L4 46L4 45L7 45L7 46L6 46L6 47L7 47L7 48L5 48L5 47L3 47L3 49L2 49L2 51L0 51L0 53L4 53L4 52L5 52L5 51L7 51L7 52L6 52L6 53L7 53L7 52L8 52L8 54L10 54L10 55L8 55L8 57L9 57L9 59L8 59L8 61L10 61L10 60L11 60L11 61L13 61L13 59L14 59L14 58L13 58L13 57L14 57L14 56L16 56L16 57L15 57L15 58L16 58L16 59L15 59L15 60L16 60L16 61L17 61L17 60L18 60L18 61L19 61L19 59L20 59L20 58L21 58L21 60L22 60L22 59L23 59L23 58L24 58L24 60L23 60L23 61L24 61L24 60L25 60L25 61L27 61L27 60L25 60L25 57L26 57L26 59L29 59L29 60L30 60L30 59L31 59L31 60L32 60L32 61L33 61L33 59L32 59L32 58L34 58L34 57L35 57L35 56L36 56L36 57L37 57L37 58L35 58L35 59L34 59L34 60L35 60L35 59L36 59L36 61L40 61L40 59L39 59L39 57L40 57L40 58L41 58L41 59L43 59L43 60L42 60L42 61L46 61L46 60L45 60L45 59L46 59L46 57L47 57L47 59L48 59L48 61L50 61L50 60L49 60L49 59L48 59L48 58L49 58L49 56L50 56L50 59L51 59L51 61L52 61L52 60L53 60L53 58L52 58L52 57L54 57L54 58L55 58L55 61L61 61L61 60L60 60L60 58L61 58L61 56L60 56L60 58L59 58L59 59L58 59L58 58L57 58L57 60L56 60L56 57L57 57L57 55L58 55L58 57L59 57L59 55L58 55L58 54L60 54L60 53L61 53L61 52L60 52L60 53L59 53L59 51L58 51L58 52L55 52L55 51L54 51L54 50L55 50L55 49L56 49L56 51L57 51L57 49L56 49L56 48L57 48L57 45L56 45L56 44L55 44L55 43L56 43L56 42L57 42L57 44L58 44L58 45L59 45L59 46L58 46L58 49L59 49L59 48L60 48L60 49L61 49L61 48L60 48L60 47L59 47L59 46L61 46L61 44L60 44L60 45L59 45L59 43L60 43L60 42L59 42L59 38L60 38L60 37L61 37L61 36L60 36L60 37L59 37L59 35L58 35L58 34L57 34L57 29L61 29L61 27L60 27L60 28L59 28L59 27L58 27L58 26L57 26L57 27L56 27L56 28L53 28L53 26L52 26L52 25L53 25L53 24L54 24L54 23L55 23L55 25L54 25L54 27L55 27L55 26L56 26L56 25L57 25L57 23L58 23L58 25L59 25L59 26L60 26L60 25L61 25L61 23L60 23L60 25L59 25L59 23L58 23L58 22L57 22L57 23L55 23L55 22L56 22L56 21L57 21L57 20L58 20L58 21L59 21L59 16L60 16L60 17L61 17L61 15L60 15L60 14L58 14L58 17L57 17L57 15L56 15L56 18L57 18L57 19L55 19L55 16L54 16L54 15L55 15L55 13L54 13L54 11L55 11L55 12L56 12L56 14L57 14L57 12L58 12L58 13L59 13L59 11L60 11L60 12L61 12L61 11L60 11L60 10L59 10L59 9L61 9L61 8L57 8L57 9L58 9L58 11L57 11L57 10L56 10L56 8L55 8L55 9L54 9L54 10L52 10L52 9L53 9L53 6L52 6L52 9L50 9L50 8L49 8L49 6L50 6L50 7L51 7L51 5L52 5L52 4L53 4L53 0L51 0L51 2L50 2L50 0L47 0L47 1L46 1L46 3L45 3L45 2L44 2L44 3L42 3L42 2L41 2L41 3L40 3L40 0L38 0L38 1L37 1L37 0L36 0L36 2L35 2L35 1L34 1L34 0L33 0L33 1L32 1L32 0L31 0L31 1L30 1L30 0L29 0L29 1L30 1L30 2L27 2L27 1L26 1L26 0L24 0L24 1L22 1L22 0L19 0L19 2L17 2L17 0L11 0L11 1L10 1L10 0ZM41 0L41 1L44 1L44 0ZM14 1L14 2L11 2L11 3L14 3L14 5L15 5L15 7L14 7L14 6L13 6L13 7L12 7L12 6L11 6L11 7L10 7L10 6L9 6L9 7L10 7L10 9L9 9L9 10L8 10L8 15L6 15L6 16L8 16L8 17L9 17L9 18L7 18L7 17L6 17L6 18L7 18L7 19L5 19L5 20L8 20L8 19L9 19L9 18L10 18L10 19L11 19L11 20L12 20L12 16L10 16L10 17L9 17L9 16L8 16L8 15L9 15L9 14L11 14L11 13L9 13L9 11L10 11L10 12L12 12L12 13L13 13L13 14L12 14L12 15L14 15L14 16L15 16L15 15L17 15L17 14L18 14L18 15L19 15L19 17L17 17L17 16L16 16L16 17L15 17L15 18L14 18L14 17L13 17L13 21L14 21L14 22L12 22L12 23L11 23L11 24L12 24L12 25L11 25L11 26L12 26L12 27L9 27L9 28L12 28L12 27L13 27L13 28L14 28L14 27L16 27L16 26L17 26L17 28L19 28L19 29L16 29L16 28L15 28L15 29L13 29L13 31L12 31L12 30L10 30L10 29L9 29L9 30L10 30L10 32L9 32L9 33L6 33L6 34L5 34L5 33L4 33L4 32L3 32L3 34L5 34L5 35L6 35L6 36L7 36L7 35L8 35L8 34L10 34L10 35L11 35L11 34L12 34L12 33L10 33L10 32L11 32L11 31L12 31L12 32L13 32L13 35L12 35L12 36L11 36L11 37L13 37L13 35L14 35L14 33L17 33L17 32L19 32L19 29L23 29L23 30L24 30L24 29L25 29L25 30L27 30L27 31L23 31L23 32L22 32L22 31L21 31L21 30L20 30L20 33L22 33L22 34L23 34L23 35L21 35L21 36L19 36L19 33L18 33L18 34L16 34L16 35L15 35L15 36L17 36L17 37L14 37L14 38L12 38L12 39L13 39L13 40L12 40L12 45L10 45L10 46L9 46L9 44L7 44L7 43L5 43L5 44L7 44L7 45L8 45L8 46L9 46L9 47L8 47L8 49L6 49L6 50L7 50L7 51L8 51L8 52L9 52L9 50L10 50L10 53L11 53L11 54L12 54L12 53L11 53L11 52L13 52L13 53L14 53L14 54L13 54L13 55L11 55L11 56L9 56L9 57L10 57L10 59L9 59L9 60L10 60L10 59L11 59L11 60L12 60L12 59L11 59L11 56L12 56L12 57L13 57L13 56L14 56L14 55L15 55L15 54L17 54L17 55L18 55L18 54L19 54L19 56L18 56L18 57L16 57L16 58L18 58L18 59L19 59L19 58L18 58L18 57L20 57L20 56L22 56L22 57L21 57L21 58L22 58L22 57L25 57L25 55L26 55L26 56L27 56L27 58L28 58L28 56L27 56L27 55L28 55L28 54L27 54L27 53L25 53L25 52L24 52L24 51L23 51L23 49L24 49L24 50L25 50L25 49L26 49L26 50L27 50L27 49L26 49L26 47L27 47L27 46L28 46L28 50L29 50L29 49L30 49L30 52L31 52L31 51L32 51L32 52L33 52L33 53L34 53L34 55L35 55L35 54L36 54L36 55L37 55L37 56L38 56L38 57L39 57L39 56L40 56L40 57L44 57L44 55L45 55L45 57L46 57L46 56L47 56L47 54L48 54L48 55L49 55L49 53L48 53L48 51L49 51L49 52L50 52L50 53L51 53L51 54L52 54L52 51L53 51L53 52L54 52L54 51L53 51L53 50L52 50L52 49L53 49L53 48L54 48L54 47L55 47L55 45L54 45L54 44L53 44L53 43L55 43L55 42L53 42L53 43L52 43L52 42L51 42L51 43L50 43L50 41L52 41L52 40L53 40L53 39L55 39L55 41L57 41L57 42L58 42L58 43L59 43L59 42L58 42L58 38L59 38L59 37L58 37L58 35L57 35L57 34L56 34L56 33L53 33L53 34L52 34L52 35L51 35L51 36L50 36L50 32L51 32L51 31L49 31L49 29L48 29L48 27L49 27L49 28L51 28L51 27L52 27L52 26L51 26L51 27L50 27L50 26L49 26L49 25L48 25L48 24L47 24L47 25L46 25L46 23L47 23L47 22L48 22L48 23L49 23L49 21L48 21L48 19L49 19L49 20L50 20L50 21L51 21L51 19L52 19L52 20L53 20L53 21L52 21L52 22L51 22L51 23L52 23L52 22L53 22L53 21L54 21L54 20L55 20L55 19L52 19L52 18L53 18L53 17L52 17L52 16L53 16L53 15L54 15L54 13L51 13L51 14L53 14L53 15L52 15L52 16L51 16L51 15L49 15L49 14L47 14L47 13L48 13L48 8L47 8L47 9L46 9L46 8L45 8L45 9L46 9L46 11L45 11L45 10L44 10L44 11L45 11L45 12L46 12L46 13L45 13L45 14L44 14L44 15L42 15L42 16L43 16L43 18L45 18L45 20L46 20L46 21L45 21L45 22L44 22L44 20L43 20L43 19L42 19L42 20L41 20L41 19L40 19L40 18L41 18L41 15L40 15L40 14L41 14L41 11L40 11L40 12L38 12L38 13L40 13L40 14L39 14L39 15L40 15L40 17L39 17L39 20L38 20L38 17L37 17L37 18L35 18L35 16L36 16L36 15L37 15L37 14L36 14L36 13L35 13L35 12L37 12L37 11L38 11L38 10L37 10L37 9L31 9L31 10L30 10L30 9L29 9L29 12L28 12L28 13L26 13L26 12L27 12L27 11L28 11L28 9L27 9L27 8L26 8L26 6L27 6L27 7L28 7L28 5L27 5L27 2L24 2L24 3L23 3L23 5L22 5L22 4L21 4L21 3L20 3L20 2L21 2L21 1L20 1L20 2L19 2L19 3L18 3L18 5L17 5L17 2L16 2L16 1ZM31 1L31 2L30 2L30 3L31 3L31 4L33 4L33 8L35 8L35 7L36 7L36 6L37 6L37 8L38 8L38 9L39 9L39 10L40 10L40 9L41 9L41 10L42 10L42 9L41 9L41 7L42 7L42 8L43 8L43 9L44 9L44 6L43 6L43 5L42 5L42 4L39 4L39 5L37 5L37 4L38 4L38 3L39 3L39 1L38 1L38 2L37 2L37 3L35 3L35 2L34 2L34 1L33 1L33 2L32 2L32 1ZM47 1L47 2L48 2L48 1ZM31 2L31 3L32 3L32 2ZM33 2L33 4L34 4L34 2ZM49 2L49 3L48 3L48 4L45 4L45 3L44 3L44 4L45 4L45 5L48 5L48 4L49 4L49 5L50 5L50 2ZM24 3L24 5L23 5L23 6L22 6L22 7L21 7L21 6L20 6L20 5L21 5L21 4L20 4L20 5L18 5L18 7L19 7L19 6L20 6L20 7L21 7L21 8L18 8L18 9L17 9L17 6L16 6L16 7L15 7L15 8L14 8L14 7L13 7L13 8L14 8L14 9L12 9L12 8L11 8L11 9L10 9L10 11L13 11L13 10L14 10L14 9L15 9L15 10L16 10L16 11L15 11L15 12L13 12L13 13L15 13L15 14L16 14L16 13L19 13L19 14L22 14L22 12L21 12L21 11L23 11L23 10L26 10L26 11L25 11L25 12L26 12L26 11L27 11L27 9L24 9L24 7L25 7L25 3ZM28 3L28 4L29 4L29 3ZM51 3L51 4L52 4L52 3ZM11 4L11 5L13 5L13 4ZM35 4L35 5L34 5L34 7L35 7L35 5L36 5L36 4ZM29 5L29 8L32 8L32 5ZM39 5L39 6L38 6L38 8L39 8L39 6L40 6L40 7L41 7L41 6L42 6L42 7L43 7L43 6L42 6L42 5L41 5L41 6L40 6L40 5ZM23 6L23 7L22 7L22 9L23 9L23 7L24 7L24 6ZM30 6L30 7L31 7L31 6ZM45 6L45 7L46 7L46 6ZM47 6L47 7L48 7L48 6ZM15 8L15 9L16 9L16 10L17 10L17 9L16 9L16 8ZM6 9L6 10L7 10L7 9ZM19 9L19 10L18 10L18 11L17 11L17 12L19 12L19 13L21 13L21 12L19 12L19 11L20 11L20 10L21 10L21 9ZM33 10L33 11L32 11L32 12L31 12L31 14L29 14L29 15L26 15L26 16L24 16L24 15L25 15L25 14L26 14L26 13L24 13L24 14L23 14L23 16L22 16L22 15L21 15L21 17L19 17L19 18L20 18L20 19L21 19L21 21L20 21L20 20L18 20L18 18L16 18L16 19L14 19L14 20L15 20L15 21L17 21L17 22L15 22L15 23L13 23L13 24L16 24L16 25L15 25L15 26L16 26L16 25L18 25L18 27L20 27L20 26L21 26L21 25L22 25L22 27L21 27L21 28L24 28L24 27L29 27L29 28L28 28L28 29L27 29L27 28L25 28L25 29L27 29L27 30L28 30L28 32L23 32L23 33L24 33L24 34L25 34L25 35L26 35L26 33L27 33L27 35L28 35L28 37L27 37L27 36L25 36L25 37L24 37L24 38L25 38L25 39L26 39L26 40L27 40L27 39L28 39L28 40L29 40L29 39L30 39L30 37L32 37L32 39L31 39L31 40L30 40L30 41L31 41L31 40L32 40L32 43L31 43L31 42L28 42L28 41L24 41L24 39L23 39L23 37L22 37L22 36L21 36L21 37L19 37L19 36L18 36L18 35L17 35L17 36L18 36L18 37L19 37L19 38L20 38L20 39L22 39L22 40L18 40L18 41L17 41L17 39L18 39L18 38L15 38L15 39L14 39L14 40L13 40L13 45L12 45L12 46L11 46L11 47L12 47L12 48L11 48L11 49L10 49L10 50L11 50L11 49L12 49L12 50L13 50L13 52L14 52L14 53L17 53L17 54L18 54L18 53L19 53L19 54L20 54L20 55L23 55L23 56L24 56L24 55L23 55L23 53L24 53L24 54L25 54L25 53L24 53L24 52L23 52L23 53L22 53L22 52L21 52L21 53L20 53L20 52L19 52L19 51L20 51L20 50L21 50L21 49L23 49L23 48L24 48L24 49L25 49L25 47L23 47L23 48L22 48L22 47L21 47L21 46L23 46L23 45L24 45L24 46L25 46L25 45L28 45L28 44L30 44L30 45L31 45L31 46L32 46L32 47L30 47L30 46L29 46L29 48L30 48L30 49L31 49L31 50L32 50L32 51L33 51L33 52L34 52L34 53L35 53L35 52L36 52L36 53L37 53L37 54L38 54L38 55L41 55L41 56L42 56L42 55L43 55L43 54L44 54L44 53L45 53L45 51L48 51L48 50L49 50L49 47L52 47L52 48L53 48L53 47L54 47L54 46L53 46L53 47L52 47L52 46L51 46L51 44L50 44L50 45L49 45L49 43L48 43L48 42L49 42L49 41L50 41L50 40L49 40L49 39L48 39L48 38L50 38L50 39L53 39L53 38L55 38L55 39L56 39L56 38L57 38L57 37L56 37L56 34L55 34L55 35L54 35L54 34L53 34L53 35L52 35L52 37L53 37L53 38L51 38L51 37L50 37L50 36L49 36L49 35L48 35L48 34L47 34L47 35L46 35L46 34L45 34L45 32L46 32L46 33L49 33L49 31L47 31L47 32L46 32L46 31L44 31L44 37L45 37L45 36L46 36L46 37L47 37L47 35L48 35L48 38L47 38L47 39L46 39L46 38L45 38L45 39L44 39L44 41L45 41L45 42L43 42L43 37L42 37L42 42L40 42L40 43L39 43L39 41L40 41L40 38L41 38L41 37L40 37L40 38L39 38L39 37L38 37L38 36L37 36L37 35L36 35L36 34L35 34L35 36L36 36L36 39L39 39L39 40L35 40L35 41L37 41L37 42L38 42L38 43L39 43L39 44L37 44L37 43L36 43L36 42L35 42L35 43L34 43L34 42L33 42L33 40L32 40L32 39L34 39L34 38L33 38L33 36L32 36L32 34L34 34L34 32L35 32L35 33L37 33L37 34L38 34L38 35L39 35L39 34L41 34L41 36L43 36L43 29L42 29L42 27L43 27L43 28L44 28L44 29L46 29L46 28L47 28L47 27L48 27L48 26L47 26L47 27L45 27L45 26L46 26L46 25L45 25L45 23L46 23L46 22L45 22L45 23L44 23L44 25L42 25L42 26L41 26L41 25L38 25L38 24L37 24L37 23L36 23L36 22L35 22L35 23L34 23L34 22L33 22L33 24L34 24L34 25L35 25L35 26L37 26L37 27L36 27L36 30L35 30L35 31L34 31L34 29L35 29L35 28L30 28L30 26L32 26L32 25L30 25L30 23L32 23L32 21L33 21L33 20L34 20L34 21L37 21L37 22L38 22L38 23L39 23L39 24L40 24L40 23L41 23L41 24L42 24L42 23L43 23L43 21L42 21L42 23L41 23L41 22L39 22L39 21L38 21L38 20L37 20L37 19L34 19L34 17L33 17L33 20L32 20L32 17L30 17L30 15L31 15L31 16L33 16L33 15L32 15L32 13L33 13L33 14L34 14L34 16L35 16L35 15L36 15L36 14L34 14L34 12L33 12L33 11L34 11L34 10ZM36 10L36 11L37 11L37 10ZM49 10L49 13L50 13L50 10ZM51 10L51 11L52 11L52 10ZM55 10L55 11L56 11L56 10ZM3 11L3 13L4 13L4 14L5 14L5 13L6 13L6 14L7 14L7 13L6 13L6 12L7 12L7 11L6 11L6 12L4 12L4 11ZM42 11L42 12L43 12L43 11ZM15 12L15 13L16 13L16 12ZM29 12L29 13L30 13L30 12ZM1 15L1 16L2 16L2 15ZM44 15L44 17L45 17L45 16L46 16L46 17L47 17L47 19L46 19L46 20L47 20L47 19L48 19L48 17L49 17L49 15ZM23 16L23 17L21 17L21 18L23 18L23 17L24 17L24 18L25 18L25 20L24 20L24 19L22 19L22 21L21 21L21 23L22 23L22 25L25 25L25 26L26 26L26 25L25 25L25 24L24 24L24 23L26 23L26 24L27 24L27 26L29 26L29 25L28 25L28 23L29 23L29 22L30 22L30 21L31 21L31 19L30 19L30 17L28 17L28 16L27 16L27 17L26 17L26 18L25 18L25 17L24 17L24 16ZM50 16L50 19L51 19L51 16ZM10 17L10 18L11 18L11 17ZM26 19L26 20L25 20L25 21L24 21L24 20L23 20L23 21L22 21L22 23L23 23L23 21L24 21L24 22L25 22L25 21L29 21L29 19ZM17 20L17 21L18 21L18 22L17 22L17 23L18 23L18 22L19 22L19 24L18 24L18 25L20 25L20 22L19 22L19 21L18 21L18 20ZM60 20L60 21L61 21L61 20ZM27 22L27 23L28 23L28 22ZM51 24L51 25L52 25L52 24ZM4 25L4 26L3 26L3 27L5 27L5 25ZM12 25L12 26L13 26L13 25ZM44 25L44 26L45 26L45 25ZM23 26L23 27L24 27L24 26ZM33 26L33 27L34 27L34 26ZM39 26L39 27L37 27L37 28L39 28L39 27L40 27L40 29L39 29L39 31L40 31L40 33L41 33L41 32L42 32L42 31L40 31L40 30L41 30L41 26ZM1 27L1 28L2 28L2 27ZM44 27L44 28L45 28L45 27ZM3 28L3 29L4 29L4 28ZM5 29L5 32L8 32L8 29ZM15 29L15 30L14 30L14 31L13 31L13 32L14 32L14 31L15 31L15 32L17 32L17 31L18 31L18 30L17 30L17 31L16 31L16 29ZM29 29L29 32L32 32L32 29ZM53 29L53 32L56 32L56 29ZM3 30L3 31L4 31L4 30ZM6 30L6 31L7 31L7 30ZM30 30L30 31L31 31L31 30ZM36 30L36 31L35 31L35 32L36 32L36 31L37 31L37 30ZM54 30L54 31L55 31L55 30ZM58 30L58 33L59 33L59 32L61 32L61 31L60 31L60 30ZM1 31L1 32L2 32L2 31ZM37 32L37 33L39 33L39 32ZM28 33L28 34L30 34L30 35L29 35L29 37L28 37L28 38L29 38L29 37L30 37L30 36L31 36L31 34L32 34L32 33ZM6 34L6 35L7 35L7 34ZM23 35L23 36L24 36L24 35ZM53 35L53 37L54 37L54 35ZM8 36L8 37L6 37L6 38L7 38L7 39L6 39L6 40L7 40L7 39L9 39L9 36ZM21 37L21 38L22 38L22 37ZM26 37L26 38L27 38L27 37ZM55 37L55 38L56 38L56 37ZM10 39L10 40L11 40L11 39ZM45 39L45 40L46 40L46 43L47 43L47 44L46 44L46 45L45 45L45 46L44 46L44 45L43 45L43 47L40 47L40 50L39 50L39 51L38 51L38 52L37 52L37 53L38 53L38 52L39 52L39 54L41 54L41 55L42 55L42 53L41 53L41 52L43 52L43 53L44 53L44 51L45 51L45 49L46 49L46 50L47 50L47 49L46 49L46 48L45 48L45 49L44 49L44 47L45 47L45 46L46 46L46 47L47 47L47 48L48 48L48 47L49 47L49 45L48 45L48 43L47 43L47 41L48 41L48 40L46 40L46 39ZM60 39L60 41L61 41L61 39ZM15 40L15 41L14 41L14 42L15 42L15 43L16 43L16 42L17 42L17 41L16 41L16 40ZM22 40L22 41L19 41L19 42L18 42L18 43L17 43L17 45L16 45L16 44L14 44L14 46L12 46L12 47L14 47L14 46L17 46L17 47L15 47L15 48L16 48L16 49L15 49L15 51L16 51L16 50L17 50L17 51L18 51L18 50L20 50L20 49L21 49L21 48L20 48L20 46L19 46L19 45L23 45L23 43L22 43L22 44L19 44L19 43L20 43L20 42L22 42L22 41L23 41L23 40ZM9 41L9 42L10 42L10 44L11 44L11 42L10 42L10 41ZM15 41L15 42L16 42L16 41ZM26 42L26 43L27 43L27 44L28 44L28 43L27 43L27 42ZM24 43L24 45L25 45L25 43ZM32 43L32 44L33 44L33 43ZM35 43L35 44L34 44L34 46L33 46L33 47L32 47L32 48L31 48L31 49L32 49L32 50L33 50L33 49L34 49L34 51L36 51L36 48L34 48L34 47L35 47L35 46L36 46L36 47L37 47L37 48L38 48L38 49L39 49L39 47L37 47L37 46L36 46L36 43ZM40 43L40 46L41 46L41 43ZM18 44L18 45L19 45L19 44ZM52 44L52 45L53 45L53 44ZM0 45L0 46L1 46L1 47L0 47L0 49L1 49L1 47L2 47L2 46L1 46L1 45ZM47 45L47 47L48 47L48 45ZM9 47L9 48L10 48L10 47ZM17 47L17 49L20 49L20 48L18 48L18 47ZM4 48L4 50L5 50L5 48ZM13 48L13 50L14 50L14 48ZM32 48L32 49L33 49L33 48ZM41 48L41 51L43 51L43 48ZM50 48L50 51L52 51L52 50L51 50L51 48ZM8 49L8 50L9 50L9 49ZM3 51L3 52L4 52L4 51ZM26 51L26 52L28 52L28 51ZM17 52L17 53L18 53L18 52ZM29 53L29 56L32 56L32 53ZM53 53L53 56L56 56L56 53ZM30 54L30 55L31 55L31 54ZM45 54L45 55L46 55L46 54ZM54 54L54 55L55 55L55 54ZM33 56L33 57L34 57L34 56ZM51 56L51 57L52 57L52 56ZM31 57L31 58L32 58L32 57ZM29 58L29 59L30 59L30 58ZM37 58L37 60L39 60L39 59L38 59L38 58ZM43 58L43 59L44 59L44 58ZM51 58L51 59L52 59L52 58ZM0 0L0 7L7 7L7 0ZM1 1L1 6L6 6L6 1ZM2 2L2 5L5 5L5 2ZM54 0L54 7L61 7L61 0ZM55 1L55 6L60 6L60 1ZM56 2L56 5L59 5L59 2ZM0 54L0 61L7 61L7 54ZM1 55L1 60L6 60L6 55ZM2 56L2 59L5 59L5 56Z" fill="#000000"/></g></g></svg>
